<mxfile host="app.diagrams.net" modified="2021-06-16T06:48:53.280Z" agent="5.0 (Windows NT 10.0; Win64; x64) AppleWebKit/537.36 (KHTML, like Gecko) Chrome/91.0.4472.106 Safari/537.36" etag="KL3UYM6OXDn2gVgW5Na2" version="14.7.9" type="github">
  <diagram name="Page-1" id="ad52d381-51e7-2e0d-a935-2d0ddd2fd229">
    <mxGraphModel dx="1422" dy="772" grid="1" gridSize="10" guides="1" tooltips="1" connect="1" arrows="1" fold="1" page="1" pageScale="1" pageWidth="1100" pageHeight="850" background="none" math="0" shadow="0">
      <root>
        <mxCell id="0" />
        <mxCell id="1" parent="0" />
        <mxCell id="2c924340bb9dbf6c-1" value="&lt;span&gt;id_staff&lt;/span&gt;" style="whiteSpace=wrap;html=1;rounded=1;shadow=1;comic=0;labelBackgroundColor=none;strokeWidth=2;fontFamily=Verdana;fontSize=12;align=center;arcSize=50;" parent="1" vertex="1">
          <mxGeometry x="50" y="30" width="100" height="20" as="geometry" />
        </mxCell>
        <mxCell id="2c924340bb9dbf6c-8" value="&lt;span&gt;usernane_acc&lt;/span&gt;" style="whiteSpace=wrap;html=1;rounded=1;shadow=1;comic=0;labelBackgroundColor=none;strokeWidth=2;fontFamily=Verdana;fontSize=12;align=center;arcSize=50;" parent="1" vertex="1">
          <mxGeometry x="40" y="90" width="100" height="20" as="geometry" />
        </mxCell>
        <mxCell id="2c924340bb9dbf6c-9" value="password_acc" style="whiteSpace=wrap;html=1;rounded=1;shadow=1;comic=0;labelBackgroundColor=none;strokeWidth=2;fontFamily=Verdana;fontSize=12;align=center;arcSize=50;" parent="1" vertex="1">
          <mxGeometry x="40" y="150" width="100" height="20" as="geometry" />
        </mxCell>
        <mxCell id="2c924340bb9dbf6c-10" value="&lt;span&gt;id_acc&lt;/span&gt;" style="whiteSpace=wrap;html=1;rounded=1;shadow=1;comic=0;labelBackgroundColor=none;strokeWidth=2;fontFamily=Verdana;fontSize=12;align=center;arcSize=50;" parent="1" vertex="1">
          <mxGeometry x="180" y="20" width="100" height="20" as="geometry" />
        </mxCell>
        <mxCell id="2c924340bb9dbf6c-24" value="melakukan" style="rhombus;whiteSpace=wrap;html=1;rounded=0;shadow=1;comic=0;labelBackgroundColor=none;strokeWidth=2;fontFamily=Verdana;fontSize=12;align=center;" parent="1" vertex="1">
          <mxGeometry x="310" y="255" width="80" height="70" as="geometry" />
        </mxCell>
        <mxCell id="2c924340bb9dbf6c-27" value="" style="edgeStyle=none;rounded=1;html=1;labelBackgroundColor=none;startArrow=none;startFill=0;startSize=5;endArrow=classicThin;endFill=1;endSize=5;jettySize=auto;orthogonalLoop=1;strokeColor=#B3B3B3;strokeWidth=1;fontFamily=Verdana;fontSize=12;exitX=0.5;exitY=0;exitDx=0;exitDy=0;" parent="1" source="-c1ywZZMFzs8JWsmVmSW-5" target="2c924340bb9dbf6c-10" edge="1">
          <mxGeometry relative="1" as="geometry">
            <mxPoint x="235.44178248430694" y="70.11559673768534" as="sourcePoint" />
          </mxGeometry>
        </mxCell>
        <mxCell id="2c924340bb9dbf6c-28" value="" style="edgeStyle=none;rounded=1;html=1;labelBackgroundColor=none;startArrow=none;startFill=0;startSize=5;endArrow=classicThin;endFill=1;endSize=5;jettySize=auto;orthogonalLoop=1;strokeColor=#B3B3B3;strokeWidth=1;fontFamily=Verdana;fontSize=12;exitX=0;exitY=0;exitDx=0;exitDy=0;" parent="1" source="-c1ywZZMFzs8JWsmVmSW-5" target="2c924340bb9dbf6c-1" edge="1">
          <mxGeometry relative="1" as="geometry">
            <mxPoint x="192" y="86" as="sourcePoint" />
          </mxGeometry>
        </mxCell>
        <mxCell id="2c924340bb9dbf6c-29" value="" style="edgeStyle=none;rounded=1;html=1;labelBackgroundColor=none;startArrow=none;startFill=0;startSize=5;endArrow=classicThin;endFill=1;endSize=5;jettySize=auto;orthogonalLoop=1;strokeColor=#B3B3B3;strokeWidth=1;fontFamily=Verdana;fontSize=12;exitX=0;exitY=0.5;exitDx=0;exitDy=0;" parent="1" source="-c1ywZZMFzs8JWsmVmSW-5" target="2c924340bb9dbf6c-8" edge="1">
          <mxGeometry relative="1" as="geometry">
            <mxPoint x="180.2415336694064" y="106.4144920201644" as="sourcePoint" />
          </mxGeometry>
        </mxCell>
        <mxCell id="2c924340bb9dbf6c-30" value="" style="edgeStyle=none;rounded=1;html=1;labelBackgroundColor=none;startArrow=none;startFill=0;startSize=5;endArrow=classicThin;endFill=1;endSize=5;jettySize=auto;orthogonalLoop=1;strokeColor=#B3B3B3;strokeWidth=1;fontFamily=Verdana;fontSize=12;exitX=0;exitY=1;exitDx=0;exitDy=0;" parent="1" source="-c1ywZZMFzs8JWsmVmSW-5" target="2c924340bb9dbf6c-9" edge="1">
          <mxGeometry relative="1" as="geometry">
            <mxPoint x="186.33436854000502" y="127.8885438199984" as="sourcePoint" />
          </mxGeometry>
        </mxCell>
        <mxCell id="2c924340bb9dbf6c-55" value="&lt;span&gt;email_acc&lt;/span&gt;" style="whiteSpace=wrap;html=1;rounded=1;shadow=1;comic=0;labelBackgroundColor=none;strokeWidth=2;fontFamily=Verdana;fontSize=12;align=center;arcSize=50;" parent="1" vertex="1">
          <mxGeometry x="290" y="40" width="100" height="20" as="geometry" />
        </mxCell>
        <mxCell id="2c924340bb9dbf6c-61" value="" style="edgeStyle=none;rounded=1;html=1;labelBackgroundColor=none;startArrow=none;startFill=0;startSize=5;endArrow=classicThin;endFill=1;endSize=5;jettySize=auto;orthogonalLoop=1;strokeColor=#B3B3B3;strokeWidth=1;fontFamily=Verdana;fontSize=12;exitX=0.75;exitY=0;exitDx=0;exitDy=0;" parent="1" source="-c1ywZZMFzs8JWsmVmSW-5" target="2c924340bb9dbf6c-55" edge="1">
          <mxGeometry relative="1" as="geometry">
            <mxPoint x="284.5175512595308" y="83.18219803642728" as="sourcePoint" />
          </mxGeometry>
        </mxCell>
        <mxCell id="-c1ywZZMFzs8JWsmVmSW-14" style="rounded=0;orthogonalLoop=1;jettySize=auto;html=1;exitX=0.5;exitY=1;exitDx=0;exitDy=0;entryX=0.6;entryY=-0.1;entryDx=0;entryDy=0;entryPerimeter=0;fontFamily=Verdana;" edge="1" parent="1" source="-c1ywZZMFzs8JWsmVmSW-26" target="-c1ywZZMFzs8JWsmVmSW-9">
          <mxGeometry relative="1" as="geometry">
            <mxPoint x="220" y="340" as="sourcePoint" />
          </mxGeometry>
        </mxCell>
        <mxCell id="-c1ywZZMFzs8JWsmVmSW-15" style="edgeStyle=none;rounded=0;orthogonalLoop=1;jettySize=auto;html=1;exitX=0;exitY=1;exitDx=0;exitDy=0;entryX=1;entryY=0;entryDx=0;entryDy=0;fontFamily=Verdana;" edge="1" parent="1" source="-c1ywZZMFzs8JWsmVmSW-26" target="-c1ywZZMFzs8JWsmVmSW-8">
          <mxGeometry relative="1" as="geometry">
            <mxPoint x="177.57359312880726" y="328.2842712474617" as="sourcePoint" />
          </mxGeometry>
        </mxCell>
        <mxCell id="-c1ywZZMFzs8JWsmVmSW-16" style="edgeStyle=none;rounded=0;orthogonalLoop=1;jettySize=auto;html=1;exitX=0;exitY=0.75;exitDx=0;exitDy=0;entryX=1;entryY=0.25;entryDx=0;entryDy=0;fontFamily=Verdana;" edge="1" parent="1" source="-c1ywZZMFzs8JWsmVmSW-26" target="-c1ywZZMFzs8JWsmVmSW-7">
          <mxGeometry relative="1" as="geometry">
            <mxPoint x="177.57359312880726" y="328.2842712474617" as="sourcePoint" />
          </mxGeometry>
        </mxCell>
        <mxCell id="2c924340bb9dbf6c-68" value="&lt;span&gt;jk_staff&lt;/span&gt;" style="whiteSpace=wrap;html=1;rounded=1;shadow=1;comic=0;labelBackgroundColor=none;strokeWidth=2;fontFamily=Verdana;fontSize=12;align=center;arcSize=50;" parent="1" vertex="1">
          <mxGeometry x="20" y="300" width="100" height="20" as="geometry" />
        </mxCell>
        <mxCell id="2c924340bb9dbf6c-69" value="&lt;span&gt;id_staff&lt;/span&gt;" style="whiteSpace=wrap;html=1;rounded=1;shadow=1;comic=0;labelBackgroundColor=none;strokeWidth=2;fontFamily=Verdana;fontSize=12;align=center;arcSize=50;" parent="1" vertex="1">
          <mxGeometry x="20" y="220" width="100" height="20" as="geometry" />
        </mxCell>
        <mxCell id="2c924340bb9dbf6c-70" value="&lt;span&gt;nama_staff&lt;/span&gt;" style="whiteSpace=wrap;html=1;rounded=1;shadow=1;comic=0;labelBackgroundColor=none;strokeWidth=2;fontFamily=Verdana;fontSize=12;align=center;arcSize=50;" parent="1" vertex="1">
          <mxGeometry x="20" y="260" width="100" height="20" as="geometry" />
        </mxCell>
        <mxCell id="2c924340bb9dbf6c-72" value="" style="edgeStyle=none;rounded=1;html=1;labelBackgroundColor=none;startArrow=none;startFill=0;startSize=5;endArrow=classicThin;endFill=1;endSize=5;jettySize=auto;orthogonalLoop=1;strokeColor=#B3B3B3;strokeWidth=1;fontFamily=Verdana;fontSize=12;exitX=0;exitY=0.25;exitDx=0;exitDy=0;" parent="1" source="-c1ywZZMFzs8JWsmVmSW-26" target="2c924340bb9dbf6c-70" edge="1">
          <mxGeometry x="-0.2404" y="65" relative="1" as="geometry">
            <mxPoint x="162.530422886731" y="288.5060845773462" as="sourcePoint" />
            <mxPoint as="offset" />
          </mxGeometry>
        </mxCell>
        <mxCell id="2c924340bb9dbf6c-73" value="" style="edgeStyle=none;rounded=1;html=1;labelBackgroundColor=none;startArrow=none;startFill=0;startSize=5;endArrow=classicThin;endFill=1;endSize=5;jettySize=auto;orthogonalLoop=1;strokeColor=#B3B3B3;strokeWidth=1;fontFamily=Verdana;fontSize=12;entryX=1;entryY=0.75;entryDx=0;entryDy=0;exitX=0;exitY=0;exitDx=0;exitDy=0;" parent="1" source="-c1ywZZMFzs8JWsmVmSW-26" target="2c924340bb9dbf6c-69" edge="1">
          <mxGeometry relative="1" as="geometry">
            <mxPoint x="177.03999162279752" y="272.0759945548184" as="sourcePoint" />
          </mxGeometry>
        </mxCell>
        <mxCell id="2c924340bb9dbf6c-74" value="" style="edgeStyle=none;rounded=1;html=1;labelBackgroundColor=none;startArrow=none;startFill=0;startSize=5;endArrow=classicThin;endFill=1;endSize=5;jettySize=auto;orthogonalLoop=1;strokeColor=#B3B3B3;strokeWidth=1;fontFamily=Verdana;fontSize=12" parent="1" target="2c924340bb9dbf6c-68" edge="1">
          <mxGeometry x="1" y="51" relative="1" as="geometry">
            <mxPoint x="170" y="290" as="sourcePoint" />
            <mxPoint as="offset" />
          </mxGeometry>
        </mxCell>
        <mxCell id="2c924340bb9dbf6c-75" value="No" style="edgeStyle=none;rounded=1;html=1;labelBackgroundColor=none;startArrow=none;startFill=0;startSize=5;endArrow=classicThin;endFill=1;endSize=5;jettySize=auto;orthogonalLoop=1;strokeColor=#B3B3B3;strokeWidth=1;fontFamily=Verdana;fontSize=12;exitX=1;exitY=0.5;exitDx=0;exitDy=0;entryX=0;entryY=0.5;entryDx=0;entryDy=0;" parent="1" source="-c1ywZZMFzs8JWsmVmSW-26" target="2c924340bb9dbf6c-24" edge="1">
          <mxGeometry x="-0.504" y="20" relative="1" as="geometry">
            <mxPoint as="offset" />
            <mxPoint x="279.7380535635575" y="303.7336283477223" as="targetPoint" />
          </mxGeometry>
        </mxCell>
        <mxCell id="-c1ywZZMFzs8JWsmVmSW-89" value="" style="edgeStyle=none;rounded=0;orthogonalLoop=1;jettySize=auto;html=1;fontFamily=Verdana;" edge="1" parent="1" source="-c1ywZZMFzs8JWsmVmSW-4" target="-c1ywZZMFzs8JWsmVmSW-88">
          <mxGeometry relative="1" as="geometry" />
        </mxCell>
        <mxCell id="-c1ywZZMFzs8JWsmVmSW-91" style="edgeStyle=none;rounded=0;orthogonalLoop=1;jettySize=auto;html=1;fontFamily=Verdana;entryX=0.5;entryY=1;entryDx=0;entryDy=0;exitX=0.325;exitY=0.138;exitDx=0;exitDy=0;exitPerimeter=0;" edge="1" parent="1" source="-c1ywZZMFzs8JWsmVmSW-95" target="-c1ywZZMFzs8JWsmVmSW-4">
          <mxGeometry relative="1" as="geometry">
            <mxPoint x="590" y="420" as="targetPoint" />
            <mxPoint x="544" y="390" as="sourcePoint" />
          </mxGeometry>
        </mxCell>
        <mxCell id="-c1ywZZMFzs8JWsmVmSW-4" value="invoice" style="rounded=0;whiteSpace=wrap;html=1;shadow=1;comic=0;fontFamily=Verdana;strokeWidth=2;" vertex="1" parent="1">
          <mxGeometry x="490" y="270" width="90" height="40" as="geometry" />
        </mxCell>
        <mxCell id="-c1ywZZMFzs8JWsmVmSW-11" style="edgeStyle=orthogonalEdgeStyle;rounded=0;orthogonalLoop=1;jettySize=auto;html=1;exitX=0.5;exitY=1;exitDx=0;exitDy=0;entryX=0.5;entryY=0;entryDx=0;entryDy=0;fontFamily=Verdana;" edge="1" parent="1" source="-c1ywZZMFzs8JWsmVmSW-5" target="-c1ywZZMFzs8JWsmVmSW-24">
          <mxGeometry relative="1" as="geometry">
            <mxPoint x="220" y="170" as="targetPoint" />
          </mxGeometry>
        </mxCell>
        <mxCell id="-c1ywZZMFzs8JWsmVmSW-5" value="account" style="rounded=0;whiteSpace=wrap;html=1;shadow=1;comic=0;fontFamily=Verdana;strokeWidth=2;" vertex="1" parent="1">
          <mxGeometry x="180" y="100" width="80" height="30" as="geometry" />
        </mxCell>
        <mxCell id="-c1ywZZMFzs8JWsmVmSW-12" style="edgeStyle=orthogonalEdgeStyle;rounded=0;orthogonalLoop=1;jettySize=auto;html=1;exitX=0.5;exitY=1;exitDx=0;exitDy=0;entryX=0.5;entryY=0;entryDx=0;entryDy=0;fontFamily=Verdana;" edge="1" parent="1" source="-c1ywZZMFzs8JWsmVmSW-24" target="-c1ywZZMFzs8JWsmVmSW-26">
          <mxGeometry relative="1" as="geometry">
            <mxPoint x="220" y="250" as="sourcePoint" />
            <mxPoint x="220" y="260" as="targetPoint" />
          </mxGeometry>
        </mxCell>
        <mxCell id="-c1ywZZMFzs8JWsmVmSW-7" value="&lt;span&gt;jabatan_staff&lt;/span&gt;" style="whiteSpace=wrap;html=1;rounded=1;shadow=1;comic=0;labelBackgroundColor=none;strokeWidth=2;fontFamily=Verdana;fontSize=12;align=center;arcSize=50;" vertex="1" parent="1">
          <mxGeometry x="20" y="340" width="100" height="20" as="geometry" />
        </mxCell>
        <mxCell id="-c1ywZZMFzs8JWsmVmSW-8" value="&lt;span&gt;alamat_staff&lt;/span&gt;" style="whiteSpace=wrap;html=1;rounded=1;shadow=1;comic=0;labelBackgroundColor=none;strokeWidth=2;fontFamily=Verdana;fontSize=12;align=center;arcSize=50;" vertex="1" parent="1">
          <mxGeometry x="30" y="380" width="100" height="20" as="geometry" />
        </mxCell>
        <mxCell id="-c1ywZZMFzs8JWsmVmSW-9" value="nohp_staff" style="whiteSpace=wrap;html=1;rounded=1;shadow=1;comic=0;labelBackgroundColor=none;strokeWidth=2;fontFamily=Verdana;fontSize=12;align=center;arcSize=50;" vertex="1" parent="1">
          <mxGeometry x="190" y="340" width="100" height="20" as="geometry" />
        </mxCell>
        <mxCell id="-c1ywZZMFzs8JWsmVmSW-17" style="edgeStyle=none;rounded=0;orthogonalLoop=1;jettySize=auto;html=1;exitX=1;exitY=0;exitDx=0;exitDy=0;fontFamily=Verdana;" edge="1" parent="1">
          <mxGeometry relative="1" as="geometry">
            <mxPoint x="240" y="190" as="sourcePoint" />
            <mxPoint x="240" y="190" as="targetPoint" />
          </mxGeometry>
        </mxCell>
        <mxCell id="-c1ywZZMFzs8JWsmVmSW-18" style="edgeStyle=none;rounded=0;orthogonalLoop=1;jettySize=auto;html=1;exitX=0.75;exitY=0;exitDx=0;exitDy=0;fontFamily=Verdana;" edge="1" parent="1" source="-c1ywZZMFzs8JWsmVmSW-9" target="-c1ywZZMFzs8JWsmVmSW-9">
          <mxGeometry relative="1" as="geometry" />
        </mxCell>
        <mxCell id="-c1ywZZMFzs8JWsmVmSW-19" style="edgeStyle=none;rounded=0;orthogonalLoop=1;jettySize=auto;html=1;exitX=0.5;exitY=0;exitDx=0;exitDy=0;fontFamily=Verdana;" edge="1" parent="1" source="-c1ywZZMFzs8JWsmVmSW-9" target="-c1ywZZMFzs8JWsmVmSW-9">
          <mxGeometry relative="1" as="geometry" />
        </mxCell>
        <mxCell id="-c1ywZZMFzs8JWsmVmSW-20" value="&lt;span&gt;gaji_staff&lt;/span&gt;" style="whiteSpace=wrap;html=1;rounded=1;shadow=1;comic=0;labelBackgroundColor=none;strokeWidth=2;fontFamily=Verdana;fontSize=12;align=center;arcSize=50;" vertex="1" parent="1">
          <mxGeometry x="140" y="380" width="100" height="20" as="geometry" />
        </mxCell>
        <mxCell id="-c1ywZZMFzs8JWsmVmSW-22" value="" style="edgeStyle=none;rounded=1;html=1;labelBackgroundColor=none;startArrow=none;startFill=0;startSize=5;endArrow=classicThin;endFill=1;endSize=5;jettySize=auto;orthogonalLoop=1;strokeColor=#B3B3B3;strokeWidth=1;fontFamily=Verdana;fontSize=12;entryX=0.35;entryY=-0.15;entryDx=0;entryDy=0;exitX=0.25;exitY=1;exitDx=0;exitDy=0;entryPerimeter=0;" edge="1" parent="1" source="-c1ywZZMFzs8JWsmVmSW-26" target="-c1ywZZMFzs8JWsmVmSW-20">
          <mxGeometry relative="1" as="geometry">
            <mxPoint x="191" y="320" as="sourcePoint" />
            <mxPoint x="130" y="245" as="targetPoint" />
          </mxGeometry>
        </mxCell>
        <mxCell id="-c1ywZZMFzs8JWsmVmSW-23" style="edgeStyle=none;rounded=0;orthogonalLoop=1;jettySize=auto;html=1;exitX=1;exitY=0;exitDx=0;exitDy=0;fontFamily=Verdana;" edge="1" parent="1">
          <mxGeometry relative="1" as="geometry">
            <mxPoint x="262.42640687119274" y="271.7157287525381" as="sourcePoint" />
            <mxPoint x="262.42640687119274" y="271.7157287525381" as="targetPoint" />
          </mxGeometry>
        </mxCell>
        <mxCell id="-c1ywZZMFzs8JWsmVmSW-24" value="punya" style="rhombus;whiteSpace=wrap;html=1;rounded=0;shadow=1;comic=0;labelBackgroundColor=none;strokeWidth=2;fontFamily=Verdana;fontSize=12;align=center;" vertex="1" parent="1">
          <mxGeometry x="190" y="170" width="60" height="60" as="geometry" />
        </mxCell>
        <mxCell id="-c1ywZZMFzs8JWsmVmSW-26" value="staff" style="rounded=0;whiteSpace=wrap;html=1;shadow=1;comic=0;fontFamily=Verdana;strokeWidth=2;" vertex="1" parent="1">
          <mxGeometry x="175" y="270" width="90" height="40" as="geometry" />
        </mxCell>
        <mxCell id="-c1ywZZMFzs8JWsmVmSW-27" style="edgeStyle=none;rounded=0;orthogonalLoop=1;jettySize=auto;html=1;exitX=0.25;exitY=0;exitDx=0;exitDy=0;fontFamily=Verdana;" edge="1" parent="1" source="-c1ywZZMFzs8JWsmVmSW-9" target="-c1ywZZMFzs8JWsmVmSW-9">
          <mxGeometry relative="1" as="geometry" />
        </mxCell>
        <mxCell id="-c1ywZZMFzs8JWsmVmSW-29" value="&lt;span&gt;nama_cust&lt;/span&gt;" style="whiteSpace=wrap;html=1;rounded=1;shadow=1;comic=0;labelBackgroundColor=none;strokeWidth=2;fontFamily=Verdana;fontSize=12;align=center;arcSize=50;" vertex="1" parent="1">
          <mxGeometry x="840" y="390" width="100" height="20" as="geometry" />
        </mxCell>
        <mxCell id="-c1ywZZMFzs8JWsmVmSW-30" value="&lt;span&gt;d_treat&lt;/span&gt;" style="whiteSpace=wrap;html=1;rounded=1;shadow=1;comic=0;labelBackgroundColor=none;strokeWidth=2;fontFamily=Verdana;fontSize=12;align=center;arcSize=50;" vertex="1" parent="1">
          <mxGeometry x="960" y="310" width="100" height="20" as="geometry" />
        </mxCell>
        <mxCell id="-c1ywZZMFzs8JWsmVmSW-31" value="&lt;span&gt;id_inv&lt;/span&gt;" style="whiteSpace=wrap;html=1;rounded=1;shadow=1;comic=0;labelBackgroundColor=none;strokeWidth=2;fontFamily=Verdana;fontSize=12;align=center;arcSize=50;" vertex="1" parent="1">
          <mxGeometry x="960" y="240" width="100" height="20" as="geometry" />
        </mxCell>
        <mxCell id="-c1ywZZMFzs8JWsmVmSW-32" value="&lt;span&gt;tipe_pembayaran&lt;/span&gt;" style="whiteSpace=wrap;html=1;rounded=1;shadow=1;comic=0;labelBackgroundColor=none;strokeWidth=2;fontFamily=Verdana;fontSize=12;align=center;arcSize=50;" vertex="1" parent="1">
          <mxGeometry x="580" y="340" width="120" height="20" as="geometry" />
        </mxCell>
        <mxCell id="-c1ywZZMFzs8JWsmVmSW-33" value="&lt;span&gt;id_dis&lt;/span&gt;" style="whiteSpace=wrap;html=1;rounded=1;shadow=1;comic=0;labelBackgroundColor=none;strokeWidth=2;fontFamily=Verdana;fontSize=12;align=center;arcSize=50;" vertex="1" parent="1">
          <mxGeometry x="385" y="340" width="100" height="20" as="geometry" />
        </mxCell>
        <mxCell id="-c1ywZZMFzs8JWsmVmSW-34" value="&lt;span&gt;tgl_transaksi&lt;/span&gt;" style="whiteSpace=wrap;html=1;rounded=1;shadow=1;comic=0;labelBackgroundColor=none;strokeWidth=2;fontFamily=Verdana;fontSize=12;align=center;arcSize=50;" vertex="1" parent="1">
          <mxGeometry x="540" y="190" width="100" height="20" as="geometry" />
        </mxCell>
        <mxCell id="-c1ywZZMFzs8JWsmVmSW-35" value="&lt;span&gt;id_staff&lt;/span&gt;" style="whiteSpace=wrap;html=1;rounded=1;shadow=1;comic=0;labelBackgroundColor=none;strokeWidth=2;fontFamily=Verdana;fontSize=12;align=center;arcSize=50;" vertex="1" parent="1">
          <mxGeometry x="620" y="220" width="100" height="20" as="geometry" />
        </mxCell>
        <mxCell id="-c1ywZZMFzs8JWsmVmSW-36" value="&lt;span&gt;id_cust&lt;/span&gt;" style="whiteSpace=wrap;html=1;rounded=1;shadow=1;comic=0;labelBackgroundColor=none;strokeWidth=2;fontFamily=Verdana;fontSize=12;align=center;arcSize=50;" vertex="1" parent="1">
          <mxGeometry x="430" y="190" width="100" height="20" as="geometry" />
        </mxCell>
        <mxCell id="-c1ywZZMFzs8JWsmVmSW-37" value="&lt;span&gt;id_inv&lt;/span&gt;" style="whiteSpace=wrap;html=1;rounded=1;shadow=1;comic=0;labelBackgroundColor=none;strokeWidth=2;fontFamily=Verdana;fontSize=12;align=center;arcSize=50;" vertex="1" parent="1">
          <mxGeometry x="350" y="220" width="100" height="20" as="geometry" />
        </mxCell>
        <mxCell id="-c1ywZZMFzs8JWsmVmSW-40" value="No" style="edgeStyle=none;rounded=1;html=1;labelBackgroundColor=none;startArrow=none;startFill=0;startSize=5;endArrow=classicThin;endFill=1;endSize=5;jettySize=auto;orthogonalLoop=1;strokeColor=#B3B3B3;strokeWidth=1;fontFamily=Verdana;fontSize=12;exitX=1;exitY=0.5;exitDx=0;exitDy=0;entryX=0;entryY=0.5;entryDx=0;entryDy=0;" edge="1" parent="1" source="2c924340bb9dbf6c-24" target="-c1ywZZMFzs8JWsmVmSW-4">
          <mxGeometry x="-0.504" y="20" relative="1" as="geometry">
            <mxPoint as="offset" />
            <mxPoint x="275" y="300" as="sourcePoint" />
            <mxPoint x="320" y="300" as="targetPoint" />
          </mxGeometry>
        </mxCell>
        <mxCell id="-c1ywZZMFzs8JWsmVmSW-45" value="" style="edgeStyle=none;rounded=1;html=1;labelBackgroundColor=none;startArrow=none;startFill=0;startSize=5;endArrow=classicThin;endFill=1;endSize=5;jettySize=auto;orthogonalLoop=1;strokeColor=#B3B3B3;strokeWidth=1;fontFamily=Verdana;fontSize=12;exitX=0.5;exitY=0;exitDx=0;exitDy=0;entryX=0.5;entryY=1;entryDx=0;entryDy=0;" edge="1" parent="1" source="-c1ywZZMFzs8JWsmVmSW-4" target="-c1ywZZMFzs8JWsmVmSW-36">
          <mxGeometry relative="1" as="geometry">
            <mxPoint x="290" y="150" as="sourcePoint" />
            <mxPoint x="370" y="110" as="targetPoint" />
          </mxGeometry>
        </mxCell>
        <mxCell id="-c1ywZZMFzs8JWsmVmSW-46" value="" style="edgeStyle=none;rounded=1;html=1;labelBackgroundColor=none;startArrow=none;startFill=0;startSize=5;endArrow=classicThin;endFill=1;endSize=5;jettySize=auto;orthogonalLoop=1;strokeColor=#B3B3B3;strokeWidth=1;fontFamily=Verdana;fontSize=12;exitX=0;exitY=0;exitDx=0;exitDy=0;entryX=0.5;entryY=1;entryDx=0;entryDy=0;" edge="1" parent="1" source="-c1ywZZMFzs8JWsmVmSW-4" target="-c1ywZZMFzs8JWsmVmSW-37">
          <mxGeometry relative="1" as="geometry">
            <mxPoint x="300" y="160" as="sourcePoint" />
            <mxPoint x="380" y="120" as="targetPoint" />
          </mxGeometry>
        </mxCell>
        <mxCell id="-c1ywZZMFzs8JWsmVmSW-47" value="" style="edgeStyle=none;rounded=1;html=1;labelBackgroundColor=none;startArrow=none;startFill=0;startSize=5;endArrow=classicThin;endFill=1;endSize=5;jettySize=auto;orthogonalLoop=1;strokeColor=#B3B3B3;strokeWidth=1;fontFamily=Verdana;fontSize=12;exitX=1;exitY=0.5;exitDx=0;exitDy=0;entryX=0;entryY=0.5;entryDx=0;entryDy=0;" edge="1" parent="1" source="-c1ywZZMFzs8JWsmVmSW-4" target="-c1ywZZMFzs8JWsmVmSW-52">
          <mxGeometry relative="1" as="geometry">
            <mxPoint x="545" y="280" as="sourcePoint" />
            <mxPoint x="710" y="290" as="targetPoint" />
          </mxGeometry>
        </mxCell>
        <mxCell id="-c1ywZZMFzs8JWsmVmSW-48" value="" style="edgeStyle=none;rounded=1;html=1;labelBackgroundColor=none;startArrow=none;startFill=0;startSize=5;endArrow=classicThin;endFill=1;endSize=5;jettySize=auto;orthogonalLoop=1;strokeColor=#B3B3B3;strokeWidth=1;fontFamily=Verdana;fontSize=12;exitX=1;exitY=1;exitDx=0;exitDy=0;entryX=0.5;entryY=0;entryDx=0;entryDy=0;" edge="1" parent="1" source="-c1ywZZMFzs8JWsmVmSW-4" target="-c1ywZZMFzs8JWsmVmSW-32">
          <mxGeometry relative="1" as="geometry">
            <mxPoint x="555" y="290" as="sourcePoint" />
            <mxPoint x="555" y="230" as="targetPoint" />
          </mxGeometry>
        </mxCell>
        <mxCell id="-c1ywZZMFzs8JWsmVmSW-49" value="" style="edgeStyle=none;rounded=1;html=1;labelBackgroundColor=none;startArrow=none;startFill=0;startSize=5;endArrow=classicThin;endFill=1;endSize=5;jettySize=auto;orthogonalLoop=1;strokeColor=#B3B3B3;strokeWidth=1;fontFamily=Verdana;fontSize=12;exitX=1;exitY=0;exitDx=0;exitDy=0;entryX=0.5;entryY=1;entryDx=0;entryDy=0;" edge="1" parent="1" source="-c1ywZZMFzs8JWsmVmSW-4" target="-c1ywZZMFzs8JWsmVmSW-35">
          <mxGeometry relative="1" as="geometry">
            <mxPoint x="565" y="300" as="sourcePoint" />
            <mxPoint x="565" y="240" as="targetPoint" />
          </mxGeometry>
        </mxCell>
        <mxCell id="-c1ywZZMFzs8JWsmVmSW-50" value="" style="edgeStyle=none;rounded=1;html=1;labelBackgroundColor=none;startArrow=none;startFill=0;startSize=5;endArrow=classicThin;endFill=1;endSize=5;jettySize=auto;orthogonalLoop=1;strokeColor=#B3B3B3;strokeWidth=1;fontFamily=Verdana;fontSize=12;exitX=0.5;exitY=0;exitDx=0;exitDy=0;" edge="1" parent="1" source="-c1ywZZMFzs8JWsmVmSW-4" target="-c1ywZZMFzs8JWsmVmSW-34">
          <mxGeometry relative="1" as="geometry">
            <mxPoint x="575" y="310" as="sourcePoint" />
            <mxPoint x="480" y="330" as="targetPoint" />
          </mxGeometry>
        </mxCell>
        <mxCell id="-c1ywZZMFzs8JWsmVmSW-51" value="" style="edgeStyle=none;rounded=1;html=1;labelBackgroundColor=none;startArrow=none;startFill=0;startSize=5;endArrow=classicThin;endFill=1;endSize=5;jettySize=auto;orthogonalLoop=1;strokeColor=#B3B3B3;strokeWidth=1;fontFamily=Verdana;fontSize=12;exitX=0;exitY=1;exitDx=0;exitDy=0;entryX=0.5;entryY=0;entryDx=0;entryDy=0;" edge="1" parent="1" source="-c1ywZZMFzs8JWsmVmSW-4" target="-c1ywZZMFzs8JWsmVmSW-33">
          <mxGeometry relative="1" as="geometry">
            <mxPoint x="585" y="320" as="sourcePoint" />
            <mxPoint x="450" y="320" as="targetPoint" />
          </mxGeometry>
        </mxCell>
        <mxCell id="-c1ywZZMFzs8JWsmVmSW-71" value="" style="edgeStyle=none;rounded=0;orthogonalLoop=1;jettySize=auto;html=1;fontFamily=Verdana;" edge="1" parent="1" source="-c1ywZZMFzs8JWsmVmSW-52" target="-c1ywZZMFzs8JWsmVmSW-56">
          <mxGeometry relative="1" as="geometry" />
        </mxCell>
        <mxCell id="-c1ywZZMFzs8JWsmVmSW-52" value="memiliki" style="rhombus;whiteSpace=wrap;html=1;rounded=0;shadow=1;comic=0;labelBackgroundColor=none;strokeWidth=2;fontFamily=Verdana;fontSize=12;align=center;direction=west;" vertex="1" parent="1">
          <mxGeometry x="710" y="255" width="80" height="70" as="geometry" />
        </mxCell>
        <mxCell id="-c1ywZZMFzs8JWsmVmSW-82" value="" style="edgeStyle=none;rounded=0;orthogonalLoop=1;jettySize=auto;html=1;fontFamily=Verdana;" edge="1" parent="1" source="-c1ywZZMFzs8JWsmVmSW-55" target="-c1ywZZMFzs8JWsmVmSW-63">
          <mxGeometry relative="1" as="geometry" />
        </mxCell>
        <mxCell id="-c1ywZZMFzs8JWsmVmSW-83" value="" style="edgeStyle=none;rounded=0;orthogonalLoop=1;jettySize=auto;html=1;fontFamily=Verdana;" edge="1" parent="1" source="-c1ywZZMFzs8JWsmVmSW-55" target="-c1ywZZMFzs8JWsmVmSW-62">
          <mxGeometry relative="1" as="geometry" />
        </mxCell>
        <mxCell id="-c1ywZZMFzs8JWsmVmSW-84" value="" style="edgeStyle=none;rounded=0;orthogonalLoop=1;jettySize=auto;html=1;fontFamily=Verdana;" edge="1" parent="1" source="-c1ywZZMFzs8JWsmVmSW-55" target="-c1ywZZMFzs8JWsmVmSW-60">
          <mxGeometry relative="1" as="geometry" />
        </mxCell>
        <mxCell id="-c1ywZZMFzs8JWsmVmSW-85" style="edgeStyle=none;rounded=0;orthogonalLoop=1;jettySize=auto;html=1;entryX=0.5;entryY=1;entryDx=0;entryDy=0;fontFamily=Verdana;" edge="1" parent="1" source="-c1ywZZMFzs8JWsmVmSW-55" target="-c1ywZZMFzs8JWsmVmSW-64">
          <mxGeometry relative="1" as="geometry" />
        </mxCell>
        <mxCell id="-c1ywZZMFzs8JWsmVmSW-86" style="edgeStyle=none;rounded=0;orthogonalLoop=1;jettySize=auto;html=1;entryX=0.5;entryY=1;entryDx=0;entryDy=0;fontFamily=Verdana;" edge="1" parent="1" source="-c1ywZZMFzs8JWsmVmSW-55" target="-c1ywZZMFzs8JWsmVmSW-61">
          <mxGeometry relative="1" as="geometry" />
        </mxCell>
        <mxCell id="-c1ywZZMFzs8JWsmVmSW-55" value="treatment" style="rounded=0;whiteSpace=wrap;html=1;shadow=1;comic=0;fontFamily=Verdana;strokeWidth=2;" vertex="1" parent="1">
          <mxGeometry x="850" y="80" width="90" height="40" as="geometry" />
        </mxCell>
        <mxCell id="-c1ywZZMFzs8JWsmVmSW-72" value="" style="edgeStyle=none;rounded=0;orthogonalLoop=1;jettySize=auto;html=1;fontFamily=Verdana;" edge="1" parent="1" source="-c1ywZZMFzs8JWsmVmSW-56" target="-c1ywZZMFzs8JWsmVmSW-31">
          <mxGeometry relative="1" as="geometry" />
        </mxCell>
        <mxCell id="-c1ywZZMFzs8JWsmVmSW-76" style="edgeStyle=none;rounded=0;orthogonalLoop=1;jettySize=auto;html=1;entryX=0;entryY=0.5;entryDx=0;entryDy=0;fontFamily=Verdana;" edge="1" parent="1" source="-c1ywZZMFzs8JWsmVmSW-56" target="-c1ywZZMFzs8JWsmVmSW-30">
          <mxGeometry relative="1" as="geometry" />
        </mxCell>
        <mxCell id="-c1ywZZMFzs8JWsmVmSW-80" value="" style="edgeStyle=none;rounded=0;orthogonalLoop=1;jettySize=auto;html=1;fontFamily=Verdana;" edge="1" parent="1" source="-c1ywZZMFzs8JWsmVmSW-56" target="-c1ywZZMFzs8JWsmVmSW-79">
          <mxGeometry relative="1" as="geometry" />
        </mxCell>
        <mxCell id="-c1ywZZMFzs8JWsmVmSW-56" value="service" style="rounded=0;whiteSpace=wrap;html=1;shadow=1;comic=0;fontFamily=Verdana;strokeWidth=2;" vertex="1" parent="1">
          <mxGeometry x="850" y="270" width="90" height="40" as="geometry" />
        </mxCell>
        <mxCell id="-c1ywZZMFzs8JWsmVmSW-57" value="&lt;span&gt;id_cust&lt;/span&gt;" style="whiteSpace=wrap;html=1;rounded=1;shadow=1;comic=0;labelBackgroundColor=none;strokeWidth=2;fontFamily=Verdana;fontSize=12;align=center;arcSize=50;" vertex="1" parent="1">
          <mxGeometry x="840" y="430" width="100" height="20" as="geometry" />
        </mxCell>
        <mxCell id="-c1ywZZMFzs8JWsmVmSW-58" value="&lt;span&gt;jk_cust&lt;/span&gt;" style="whiteSpace=wrap;html=1;rounded=1;shadow=1;comic=0;labelBackgroundColor=none;strokeWidth=2;fontFamily=Verdana;fontSize=12;align=center;arcSize=50;" vertex="1" parent="1">
          <mxGeometry x="840" y="470" width="100" height="20" as="geometry" />
        </mxCell>
        <mxCell id="-c1ywZZMFzs8JWsmVmSW-59" value="&lt;span&gt;expired_dis&lt;/span&gt;" style="whiteSpace=wrap;html=1;rounded=1;shadow=1;comic=0;labelBackgroundColor=none;strokeWidth=2;fontFamily=Verdana;fontSize=12;align=center;arcSize=50;" vertex="1" parent="1">
          <mxGeometry x="140" y="570" width="100" height="20" as="geometry" />
        </mxCell>
        <mxCell id="-c1ywZZMFzs8JWsmVmSW-60" value="&lt;span&gt;image_treat&lt;/span&gt;" style="whiteSpace=wrap;html=1;rounded=1;shadow=1;comic=0;labelBackgroundColor=none;strokeWidth=2;fontFamily=Verdana;fontSize=12;align=center;arcSize=50;" vertex="1" parent="1">
          <mxGeometry x="720" y="90" width="100" height="20" as="geometry" />
        </mxCell>
        <mxCell id="-c1ywZZMFzs8JWsmVmSW-61" value="&lt;span&gt;nama_treat&lt;/span&gt;" style="whiteSpace=wrap;html=1;rounded=1;shadow=1;comic=0;labelBackgroundColor=none;strokeWidth=2;fontFamily=Verdana;fontSize=12;align=center;arcSize=50;" vertex="1" parent="1">
          <mxGeometry x="720" y="30" width="100" height="20" as="geometry" />
        </mxCell>
        <mxCell id="-c1ywZZMFzs8JWsmVmSW-62" value="&lt;span&gt;harga_treat&lt;/span&gt;" style="whiteSpace=wrap;html=1;rounded=1;shadow=1;comic=0;labelBackgroundColor=none;strokeWidth=2;fontFamily=Verdana;fontSize=12;align=center;arcSize=50;" vertex="1" parent="1">
          <mxGeometry x="840" y="30" width="100" height="20" as="geometry" />
        </mxCell>
        <mxCell id="-c1ywZZMFzs8JWsmVmSW-63" value="&lt;span&gt;tipe_treat&lt;/span&gt;" style="whiteSpace=wrap;html=1;rounded=1;shadow=1;comic=0;labelBackgroundColor=none;strokeWidth=2;fontFamily=Verdana;fontSize=12;align=center;arcSize=50;" vertex="1" parent="1">
          <mxGeometry x="970" y="90" width="100" height="20" as="geometry" />
        </mxCell>
        <mxCell id="-c1ywZZMFzs8JWsmVmSW-64" value="&lt;span&gt;id_treat&lt;/span&gt;" style="whiteSpace=wrap;html=1;rounded=1;shadow=1;comic=0;labelBackgroundColor=none;strokeWidth=2;fontFamily=Verdana;fontSize=12;align=center;arcSize=50;" vertex="1" parent="1">
          <mxGeometry x="970" y="30" width="100" height="20" as="geometry" />
        </mxCell>
        <mxCell id="-c1ywZZMFzs8JWsmVmSW-67" style="edgeStyle=none;rounded=0;orthogonalLoop=1;jettySize=auto;html=1;exitX=0.75;exitY=0;exitDx=0;exitDy=0;fontFamily=Verdana;" edge="1" parent="1" source="-c1ywZZMFzs8JWsmVmSW-62" target="-c1ywZZMFzs8JWsmVmSW-62">
          <mxGeometry relative="1" as="geometry" />
        </mxCell>
        <mxCell id="-c1ywZZMFzs8JWsmVmSW-69" style="edgeStyle=none;rounded=0;orthogonalLoop=1;jettySize=auto;html=1;exitX=0.75;exitY=0;exitDx=0;exitDy=0;fontFamily=Verdana;" edge="1" parent="1" source="-c1ywZZMFzs8JWsmVmSW-55" target="-c1ywZZMFzs8JWsmVmSW-55">
          <mxGeometry relative="1" as="geometry" />
        </mxCell>
        <mxCell id="-c1ywZZMFzs8JWsmVmSW-77" style="edgeStyle=none;rounded=0;orthogonalLoop=1;jettySize=auto;html=1;exitX=0.75;exitY=0;exitDx=0;exitDy=0;fontFamily=Verdana;" edge="1" parent="1" source="-c1ywZZMFzs8JWsmVmSW-31" target="-c1ywZZMFzs8JWsmVmSW-31">
          <mxGeometry relative="1" as="geometry" />
        </mxCell>
        <mxCell id="-c1ywZZMFzs8JWsmVmSW-81" value="" style="edgeStyle=none;rounded=0;orthogonalLoop=1;jettySize=auto;html=1;fontFamily=Verdana;entryX=0.5;entryY=1;entryDx=0;entryDy=0;" edge="1" parent="1" source="-c1ywZZMFzs8JWsmVmSW-79" target="-c1ywZZMFzs8JWsmVmSW-55">
          <mxGeometry relative="1" as="geometry" />
        </mxCell>
        <mxCell id="-c1ywZZMFzs8JWsmVmSW-79" value="memiliki" style="rhombus;whiteSpace=wrap;html=1;rounded=0;shadow=1;fontFamily=Verdana;strokeWidth=2;comic=0;" vertex="1" parent="1">
          <mxGeometry x="856.25" y="150" width="77.5" height="70" as="geometry" />
        </mxCell>
        <mxCell id="-c1ywZZMFzs8JWsmVmSW-110" value="" style="edgeStyle=none;rounded=0;orthogonalLoop=1;jettySize=auto;html=1;fontFamily=Verdana;" edge="1" parent="1" source="-c1ywZZMFzs8JWsmVmSW-88" target="-c1ywZZMFzs8JWsmVmSW-109">
          <mxGeometry relative="1" as="geometry" />
        </mxCell>
        <mxCell id="-c1ywZZMFzs8JWsmVmSW-88" value="memiliki" style="rhombus;whiteSpace=wrap;html=1;rounded=0;shadow=1;fontFamily=Verdana;strokeWidth=2;comic=0;" vertex="1" parent="1">
          <mxGeometry x="420" y="410" width="80" height="80" as="geometry" />
        </mxCell>
        <mxCell id="-c1ywZZMFzs8JWsmVmSW-97" value="" style="edgeStyle=none;rounded=0;orthogonalLoop=1;jettySize=auto;html=1;fontFamily=Verdana;" edge="1" parent="1" source="-c1ywZZMFzs8JWsmVmSW-95" target="-c1ywZZMFzs8JWsmVmSW-96">
          <mxGeometry relative="1" as="geometry" />
        </mxCell>
        <mxCell id="-c1ywZZMFzs8JWsmVmSW-95" value="memiliki" style="rhombus;whiteSpace=wrap;html=1;rounded=0;shadow=1;fontFamily=Verdana;strokeWidth=2;comic=0;" vertex="1" parent="1">
          <mxGeometry x="570" y="410" width="80" height="80" as="geometry" />
        </mxCell>
        <mxCell id="-c1ywZZMFzs8JWsmVmSW-104" style="edgeStyle=none;rounded=0;orthogonalLoop=1;jettySize=auto;html=1;entryX=0;entryY=0.75;entryDx=0;entryDy=0;fontFamily=Verdana;" edge="1" parent="1" source="-c1ywZZMFzs8JWsmVmSW-96" target="-c1ywZZMFzs8JWsmVmSW-29">
          <mxGeometry relative="1" as="geometry" />
        </mxCell>
        <mxCell id="-c1ywZZMFzs8JWsmVmSW-105" style="edgeStyle=none;rounded=0;orthogonalLoop=1;jettySize=auto;html=1;entryX=0;entryY=0.5;entryDx=0;entryDy=0;fontFamily=Verdana;" edge="1" parent="1" source="-c1ywZZMFzs8JWsmVmSW-96" target="-c1ywZZMFzs8JWsmVmSW-57">
          <mxGeometry relative="1" as="geometry" />
        </mxCell>
        <mxCell id="-c1ywZZMFzs8JWsmVmSW-106" style="edgeStyle=none;rounded=0;orthogonalLoop=1;jettySize=auto;html=1;entryX=0;entryY=0.5;entryDx=0;entryDy=0;fontFamily=Verdana;" edge="1" parent="1" source="-c1ywZZMFzs8JWsmVmSW-96" target="-c1ywZZMFzs8JWsmVmSW-58">
          <mxGeometry relative="1" as="geometry" />
        </mxCell>
        <mxCell id="-c1ywZZMFzs8JWsmVmSW-107" style="edgeStyle=none;rounded=0;orthogonalLoop=1;jettySize=auto;html=1;entryX=0;entryY=0.5;entryDx=0;entryDy=0;fontFamily=Verdana;" edge="1" parent="1" source="-c1ywZZMFzs8JWsmVmSW-96" target="-c1ywZZMFzs8JWsmVmSW-102">
          <mxGeometry relative="1" as="geometry" />
        </mxCell>
        <mxCell id="-c1ywZZMFzs8JWsmVmSW-108" style="edgeStyle=none;rounded=0;orthogonalLoop=1;jettySize=auto;html=1;entryX=0;entryY=0.5;entryDx=0;entryDy=0;fontFamily=Verdana;" edge="1" parent="1" source="-c1ywZZMFzs8JWsmVmSW-96" target="-c1ywZZMFzs8JWsmVmSW-101">
          <mxGeometry relative="1" as="geometry" />
        </mxCell>
        <mxCell id="-c1ywZZMFzs8JWsmVmSW-96" value="customer" style="whiteSpace=wrap;html=1;rounded=0;shadow=1;fontFamily=Verdana;strokeWidth=2;comic=0;" vertex="1" parent="1">
          <mxGeometry x="720" y="430" width="70" height="40" as="geometry" />
        </mxCell>
        <mxCell id="-c1ywZZMFzs8JWsmVmSW-98" value="&lt;span&gt;potongan_dis&lt;/span&gt;" style="whiteSpace=wrap;html=1;rounded=1;shadow=1;comic=0;labelBackgroundColor=none;strokeWidth=2;fontFamily=Verdana;fontSize=12;align=center;arcSize=50;" vertex="1" parent="1">
          <mxGeometry x="140" y="530" width="100" height="20" as="geometry" />
        </mxCell>
        <mxCell id="-c1ywZZMFzs8JWsmVmSW-99" value="&lt;span&gt;nama_dis&lt;/span&gt;" style="whiteSpace=wrap;html=1;rounded=1;shadow=1;comic=0;labelBackgroundColor=none;strokeWidth=2;fontFamily=Verdana;fontSize=12;align=center;arcSize=50;" vertex="1" parent="1">
          <mxGeometry x="140" y="490" width="100" height="20" as="geometry" />
        </mxCell>
        <mxCell id="-c1ywZZMFzs8JWsmVmSW-100" value="&lt;span&gt;id_dis&lt;/span&gt;" style="whiteSpace=wrap;html=1;rounded=1;shadow=1;comic=0;labelBackgroundColor=none;strokeWidth=2;fontFamily=Verdana;fontSize=12;align=center;arcSize=50;" vertex="1" parent="1">
          <mxGeometry x="140" y="450" width="100" height="20" as="geometry" />
        </mxCell>
        <mxCell id="-c1ywZZMFzs8JWsmVmSW-101" value="&lt;span&gt;nohp_cust&lt;/span&gt;" style="whiteSpace=wrap;html=1;rounded=1;shadow=1;comic=0;labelBackgroundColor=none;strokeWidth=2;fontFamily=Verdana;fontSize=12;align=center;arcSize=50;" vertex="1" parent="1">
          <mxGeometry x="840" y="550" width="100" height="20" as="geometry" />
        </mxCell>
        <mxCell id="-c1ywZZMFzs8JWsmVmSW-102" value="&lt;span&gt;alamat_cust&lt;/span&gt;" style="whiteSpace=wrap;html=1;rounded=1;shadow=1;comic=0;labelBackgroundColor=none;strokeWidth=2;fontFamily=Verdana;fontSize=12;align=center;arcSize=50;" vertex="1" parent="1">
          <mxGeometry x="840" y="510" width="100" height="20" as="geometry" />
        </mxCell>
        <mxCell id="-c1ywZZMFzs8JWsmVmSW-103" style="edgeStyle=none;rounded=0;orthogonalLoop=1;jettySize=auto;html=1;exitX=0.75;exitY=0;exitDx=0;exitDy=0;fontFamily=Verdana;" edge="1" parent="1" source="-c1ywZZMFzs8JWsmVmSW-58" target="-c1ywZZMFzs8JWsmVmSW-58">
          <mxGeometry relative="1" as="geometry" />
        </mxCell>
        <mxCell id="-c1ywZZMFzs8JWsmVmSW-111" style="edgeStyle=none;rounded=0;orthogonalLoop=1;jettySize=auto;html=1;entryX=1;entryY=0.75;entryDx=0;entryDy=0;fontFamily=Verdana;" edge="1" parent="1" source="-c1ywZZMFzs8JWsmVmSW-109" target="-c1ywZZMFzs8JWsmVmSW-100">
          <mxGeometry relative="1" as="geometry" />
        </mxCell>
        <mxCell id="-c1ywZZMFzs8JWsmVmSW-112" style="edgeStyle=none;rounded=0;orthogonalLoop=1;jettySize=auto;html=1;entryX=1;entryY=0.5;entryDx=0;entryDy=0;fontFamily=Verdana;" edge="1" parent="1" source="-c1ywZZMFzs8JWsmVmSW-109" target="-c1ywZZMFzs8JWsmVmSW-99">
          <mxGeometry relative="1" as="geometry" />
        </mxCell>
        <mxCell id="-c1ywZZMFzs8JWsmVmSW-113" style="edgeStyle=none;rounded=0;orthogonalLoop=1;jettySize=auto;html=1;entryX=1;entryY=0.5;entryDx=0;entryDy=0;fontFamily=Verdana;" edge="1" parent="1" source="-c1ywZZMFzs8JWsmVmSW-109" target="-c1ywZZMFzs8JWsmVmSW-98">
          <mxGeometry relative="1" as="geometry" />
        </mxCell>
        <mxCell id="-c1ywZZMFzs8JWsmVmSW-114" style="edgeStyle=none;rounded=0;orthogonalLoop=1;jettySize=auto;html=1;entryX=1;entryY=0.75;entryDx=0;entryDy=0;fontFamily=Verdana;" edge="1" parent="1" source="-c1ywZZMFzs8JWsmVmSW-109" target="-c1ywZZMFzs8JWsmVmSW-59">
          <mxGeometry relative="1" as="geometry" />
        </mxCell>
        <mxCell id="-c1ywZZMFzs8JWsmVmSW-109" value="diskon" style="whiteSpace=wrap;html=1;rounded=0;shadow=1;fontFamily=Verdana;strokeWidth=2;comic=0;" vertex="1" parent="1">
          <mxGeometry x="290" y="490" width="90" height="40" as="geometry" />
        </mxCell>
      </root>
    </mxGraphModel>
  </diagram>
</mxfile>
